<svg xmlns="http://www.w3.org/2000/svg" viewBox="0 0 309 338" width="309" height="338">
	<style>
		tspan { white-space:pre }
		.shp0 { fill: #000000 } 
		.shp1 { fill: #ffffff } 
		.shp2 { fill: #040506;stroke: #000000 } 
		.shp3 { fill: #ffffff;stroke: #000000 } 
		.shp4 { fill: #020304 } 
		.shp5 { fill: #000000;stroke: #ffffff } 
		.shp6 { fill: #ff0000;stroke: #ffffff } 
		.shp7 { fill: #00ff00 } 
	</style>
	<g id="Layer_1">
	</g>
	<g id="_x23_1">
		<g id="Layer_3">
			<path id="Layer" class="shp0" d="M-56.56 -725.02C-73.81 -759.38 -84.67 -799.15 -74.88 -836.33C-61.58 -886.82 -10.77 -921.93 41.25 -926.4C49.14 -927.08 57.09 -927.16 64.97 -926.35C92.44 -923.53 118.36 -909.58 136.98 -889.19C155.6 -868.79 167.02 -842.24 170.53 -814.85C193.81 -844.75 217.33 -874.46 241.11 -903.96C243.01 -906.32 244.99 -908.74 247.7 -910.08C250.65 -911.55 254.09 -911.54 257.39 -911.51C271.85 -911.37 286.31 -911.23 300.77 -911.08C224.3 -819.99 149.62 -731.03 73.15 -639.95C82.87 -640.61 90.81 -639.14 100.53 -639.8C134.17 -686.31 172.42 -729.27 209.42 -773.15C240.13 -809.57 269.46 -846.61 301.5 -881.86C309.52 -890.68 314.21 -899.4 324.4 -909.11C329.62 -914.08 344.57 -911.68 351.85 -911.94C360.67 -912.26 368.91 -912.68 377.71 -913.43C335.05 -860.39 291.3 -808.23 246.48 -757C291.58 -704.7 336.68 -652.4 381.78 -600.1C363.07 -602.54 344.14 -603.33 325.28 -602.44C291.43 -644.42 258.2 -687.65 221.67 -727.33C217.75 -722.45 212.98 -716.63 209.06 -711.75C221.15 -698.59 230.78 -687.26 241.06 -673.65C260.03 -648.52 279.86 -623.97 302.3 -601.88C288.2 -601.89 274.1 -601.9 259.99 -601.91C256.68 -601.91 253.26 -601.94 250.21 -603.22C246.58 -604.75 243.91 -607.89 241.38 -610.91C221.48 -634.73 201.58 -658.55 181.68 -682.37C160.27 -657.46 140.94 -631.89 119.53 -606.97C118 -605.19 117.16 -603.15 115.03 -602.17C112.89 -601.19 107.62 -602.05 105.27 -602.05C66.22 -602.13 27.16 -602.2 -11.89 -602.28C26.03 -644.21 62.98 -687.01 98.93 -730.63C115.36 -750.56 132.51 -773.52 130.29 -799.25C72.47 -734.61 18.08 -670.65 -35.19 -602.18C-52.18 -602.18 -66.91 -602.18 -87.73 -602.16C-18.62 -681.13 49.2 -761.24 115.69 -842.43C117.02 -844.05 118.42 -845.89 118.29 -847.97C118.19 -849.59 117.19 -850.99 116.19 -852.27C105.74 -865.67 91.66 -876.22 75.86 -882.48C32.56 -829.09 -11.57 -776.38 -56.51 -724.37" />
			<path id="Layer" class="shp1" d="M-25.5 -857.26C-28.09 -853.37 -30.25 -849.22 -32.4 -845.07C-34.43 -841.16 -36.47 -837.23 -37.89 -833.06C-40.99 -823.96 -41.01 -814.14 -41 -804.53C-22.61 -825.68 -4.22 -846.83 14.17 -867.99C17.23 -871.51 32.45 -882.66 28.05 -886.98C24.27 -890.7 8.51 -882.81 4.64 -881.28C-7.49 -876.51 -18.25 -868.12 -25.5 -857.26Z" />
		</g>
	</g>
	<g id="_x23_2">
		<g id="Layer_5">
			<path id="Layer" class="shp0" d="M654.48 -881.75C668.28 -887.19 683.42 -888.32 698.25 -887.93C704.92 -887.75 711.6 -887.28 718.14 -886.01C736.6 -882.43 753.87 -872.17 765.01 -857.03C776.15 -841.88 780.79 -821.88 776.44 -803.59C770.32 -777.87 748.6 -759.3 728.1 -742.6C716.77 -733.37 705.41 -724.9 694.08 -715.67C706.96 -715.9 719.21 -715.52 731.99 -715.67C747.19 -715.85 762.96 -715.67 778.14 -715.67C777.79 -698.03 778.66 -675.9 778.09 -658.64C730.84 -658.45 683.33 -660.33 635.91 -661.54C626.66 -661.78 616.49 -661.91 607.24 -662.15C607.36 -673.98 607.24 -681.63 607.24 -694.88C607.24 -696.46 607.24 -699.71 607.24 -701.24C607.24 -703.17 609.58 -704.8 610.99 -706.11C644.03 -736.69 676.23 -764.13 706.35 -797.59C709.98 -801.62 713.73 -806.07 714.29 -811.47C715.05 -818.67 709.82 -825.23 703.8 -829.24C698.66 -832.66 692.4 -835.64 686.37 -834.34C673.6 -831.6 665.43 -815.79 667.81 -807.6C667.75 -807.83 638.33 -807.9 635.26 -807.97C629.13 -808.11 621.56 -808.56 614.25 -808.52C608.17 -808.49 607.24 -805.84 608.03 -816.01C609.43 -833.98 616.88 -851.77 629.27 -864.67C636.35 -872.03 644.95 -878 654.48 -881.75Z" />
			<path id="Layer" class="shp2" d="M813.35 -871.96C812.51 -765.28 809.49 -658.61 811.1 -551.94C814.64 -551.93 818.18 -551.93 821.71 -551.92C820.87 -559.86 820.52 -567.86 820.64 -575.84C820.67 -577.93 820.75 -580.08 821.54 -582.02C822.37 -584.07 823.92 -585.73 825.44 -587.34C836.21 -598.76 847.06 -610.25 859.73 -619.51C866.91 -624.76 875.08 -629.79 878.35 -638.06C880.9 -644.51 879.91 -651.94 877.18 -658.32C874.45 -664.7 870.12 -670.24 865.84 -675.71C859.3 -684.05 854.55 -693.31 847.97 -701.62C839.92 -711.78 831.86 -721.94 823.81 -732.1C822.81 -733.36 821.75 -734.79 821.86 -736.4C821.97 -737.93 823.1 -739.16 824.16 -740.26C843.36 -760.12 861.32 -781.17 877.91 -803.25C881.29 -790.11 884.66 -776.97 888.04 -763.83C888.78 -760.94 889.54 -758.01 891 -755.4C892.17 -753.3 893.77 -751.47 895.39 -749.68C909.04 -734.66 925.32 -722.02 943.26 -712.52C946.05 -711.04 948.92 -709.63 952 -708.93C957.64 -707.66 963.91 -709.05 968.21 -712.91C972.51 -716.77 974.58 -723.09 973.01 -728.65C971.49 -734.02 967.08 -738.01 962.77 -741.55C951.87 -750.52 940.32 -758.7 928.22 -765.98C925 -767.92 921.68 -769.85 919.28 -772.73C917.8 -774.5 916.73 -776.57 915.83 -778.7C907.52 -798.36 913.41 -823.68 899.33 -839.72C894.07 -845.72 886.73 -849.4 879.95 -853.61C859.19 -866.5 842.41 -885.36 820.77 -896.71C819.58 -931.33 819.39 -965.99 820.19 -1000.62C817.58 -1000.6 814.97 -1000.59 812.36 -1000.57C813.36 -954.2 813.36 -912.32 813.36 -863.45" />
			<path id="Layer" class="shp0" d="M863.13 -941.47C859.53 -937.69 857.25 -932.81 855.43 -927.92C850.46 -914.54 850.21 -899.19 856.12 -886.21C862.03 -873.23 874.44 -863.05 888.59 -861.18C894.55 -860.39 900.6 -861.03 906.57 -861.79C911.3 -862.39 916.09 -863.09 920.41 -865.1C928.12 -868.68 933.42 -875.99 937.44 -883.49C941.17 -890.46 944.14 -898.03 944.5 -905.93C945.13 -919.71 939.6 -930.1 931.51 -941.28C920.62 -956.31 887.64 -967.19 863.13 -941.47Z" />
			<path id="Layer" class="shp3" d="M819.78 -639C824.31 -641.92 830.3 -643.67 835.36 -645.5C836.05 -646.86 835.54 -649 834.72 -650.28C833.9 -651.56 833.05 -652.54 832.17 -653.79C829.47 -657.61 823.3 -662.75 820.22 -666.06C819.75 -658.62 820.1 -646.15 819.78 -639Z" />
		</g>
	</g>
	<g id="_x23_3">
		<g id="Layer_7">
			<path id="Layer" class="shp4" d="M1241.62 -844.93C1241.86 -825.92 1242.11 -806.91 1242.35 -787.9C1302.62 -789.46 1362.93 -789.8 1423.22 -788.94C1428.05 -788.87 1433.02 -788.76 1437.45 -786.84C1441.88 -784.92 1445.68 -780.71 1445.59 -775.88C1463.19 -789.94 1480.79 -804 1498.38 -818.06C1488.84 -831.44 1473.32 -839.58 1457.34 -843.43C1441.36 -847.28 1424.75 -847.26 1408.32 -847.22C1352.48 -847.09 1296.64 -846.96 1240.8 -846.83C1240.88 -828.22 1240.96 -809.6 1241.04 -790.99" />
			<path id="Layer" class="shp4" d="M1459.24 -771.12C1454.31 -767.14 1449.29 -763.1 1443.41 -760.72C1436.78 -758.04 1429.48 -757.65 1422.33 -757.35C1395.07 -756.23 1367.77 -756.09 1340.5 -756.92C1320.42 -757.53 1300.01 -758.64 1280.54 -753.71C1261.07 -748.78 1242.26 -736.65 1234.76 -718.01C1228.99 -703.65 1230.56 -687.57 1231.27 -672.12C1232.03 -655.62 1231.7 -639.08 1230.29 -622.63C1310.67 -622.55 1391.06 -623.17 1471.43 -624.51C1471.14 -643.13 1470.85 -661.75 1470.55 -680.38C1413.83 -681.25 1357.12 -682.12 1300.4 -682.99C1299.47 -691.87 1299.1 -702.27 1305.86 -708.09C1309.67 -711.38 1314.92 -712.34 1319.91 -712.97C1348.59 -716.56 1377.61 -713.01 1406.51 -712.42C1435.41 -711.84 1465.53 -714.59 1490.37 -729.36C1500.07 -735.13 1508.66 -742.56 1517.19 -749.94C1554.72 -782.44 1592.26 -814.93 1629.79 -847.43C1612.82 -847.57 1595.85 -847.72 1578.88 -847.86C1571.94 -847.92 1561.93 -849.91 1555.28 -847.99C1549.23 -846.24 1543.87 -839.95 1539.04 -836C1512.51 -814.31 1485.91 -792.68 1459.24 -771.12Z" />
			<path id="Layer" class="shp4" d="M1456.44 -701.66C1481.51 -681.48 1508.8 -659.2 1530.27 -640.23C1537.06 -634.24 1540.3 -631.82 1545.88 -627.08C1547.09 -626.05 1547.66 -625.45 1549.17 -624.97C1550.18 -624.65 1553.16 -624.83 1554.23 -624.82C1580.51 -624.65 1602.28 -624.28 1628.5 -624.95C1587.91 -660.39 1548.6 -694.57 1508.01 -730.02C1494.19 -714.99 1475.69 -707.21 1452.88 -703.89C1455.4 -702.02 1458.59 -699.92 1461.06 -697.93" />
		</g>
	</g>
	<g id="_x23_4">
		<g id="Layer_9">
			<path id="Layer" class="shp5" d="M1948.16 -777C1947.36 -779.55 1950.19 -785.05 1951.34 -787.46C1958.09 -801.57 1970.16 -812.14 1985.23 -816.34C2000.3 -820.54 2014.43 -817.6 2028.78 -811.35C2032.75 -809.62 2036.91 -806.98 2039.65 -802.94C2048.14 -811.28 2055.96 -821.83 2061.76 -832.22C2049.2 -843.35 2034.43 -852.23 2018.25 -856.69C2002.07 -861.16 1984.43 -861.05 1968.76 -855.03C1964.06 -853.22 1959.56 -850.91 1955.21 -848.37C1948.09 -844.23 1941.27 -839.44 1935.69 -833.38C1931.71 -829.07 1928.42 -824.18 1925.29 -819.22C1918.62 -808.65 1908.96 -793.71 1909.29 -780.64C1909.46 -774.1 1918.61 -776.71 1925.7 -776.76C1933.51 -776.84 1940.06 -776.9 1948.16 -777Z" />
			<path id="Layer" class="shp5" d="M1937.05 -651.83C1924.64 -634.47 1910.94 -619.03 1899.06 -602.24C1954.25 -601.12 2009.49 -600 2064.63 -602.67C2088.77 -603.84 2113.03 -605.73 2137.05 -603.05C2142.89 -602.4 2150.01 -602.9 2155.86 -602.38C2165.25 -601.54 2173.26 -601.86 2182.76 -601.52C2162.31 -618.5 2145.5 -634.83 2125.05 -651.81C2122.88 -653.62 2122.31 -655.36 2119.65 -656.34C2117.07 -657.29 2109.53 -657.21 2105.9 -657.21C2073.01 -657.21 2044.11 -657.38 2008.86 -658.33C2032.79 -697.39 2058.83 -734.01 2085.58 -771.2C2088.93 -775.85 2093.03 -782.16 2096.4 -786.8C2113.3 -810.07 2128.05 -833.23 2144.95 -856.5C2134.54 -856.41 2124.13 -856.37 2113.72 -856.36C2107.3 -856.35 2100.83 -856.49 2091.91 -856.5C2087.99 -856.5 2082.87 -847.47 2080.54 -844.32C2077.43 -840.12 2074.32 -835.91 2071.22 -831.71C2065.19 -823.54 2059.17 -815.36 2053.15 -807.18C2028.74 -773.97 2003.08 -741.97 1978.95 -708.55C1965.48 -689.88 1950.45 -670.52 1937.05 -651.83Z" />
			<path id="Layer" class="shp5" d="M1940.33 -719.84C1933.03 -716.26 1925.74 -712.67 1918.44 -709.09C1919 -706.93 1920.34 -705.05 1921.74 -703.31C1925.34 -698.85 1929.56 -694.9 1934.24 -691.6C1939.88 -687.63 1946.13 -684.65 1952.35 -681.68C1958.61 -693.06 1967.16 -702.97 1975.4 -713.01C1975.34 -712.94 1963.24 -723.69 1962.16 -724.69C1960.73 -726 1957.95 -729.87 1956.08 -728.89C1953.7 -727.63 1951.5 -725.67 1949.1 -724.33C1946.24 -722.74 1943.28 -721.29 1940.33 -719.84Z" />
			<path id="Layer" class="shp5" d="M2225.08 -850.14C2228.32 -853.21 2230.61 -858.13 2234.95 -859.2C2239.44 -860.31 2244.65 -859.59 2249.34 -859.52C2265.76 -859.28 2280.87 -860.29 2298.06 -860.05C2250.62 -814.92 2203.19 -769.78 2155.75 -724.65C2154.89 -723.83 2154 -723 2152.91 -722.54C2151.67 -722.02 2150.28 -722.03 2148.93 -722.05C2133.04 -722.28 2117.14 -722.52 2101.25 -722.75C2099.58 -722.77 2091.38 -722.07 2091.27 -723.75C2091.16 -725.48 2098.02 -730.43 2099.36 -731.7C2105.12 -737.17 2110.88 -742.63 2116.64 -748.1C2139.69 -769.97 2162.73 -791.84 2185.78 -813.7C2198.81 -826.08 2212.04 -837.77 2225.08 -850.14Z" />
			<path id="Layer" class="shp5" d="M2208.62 -668.78C2241.06 -646.42 2250.43 -640.01 2283.66 -614.24C2294.89 -605.53 2327.48 -584.8 2338.81 -575.7C2316.51 -575.83 2298.1 -575.63 2276.14 -575.32C2271.73 -575.26 2265.82 -575.56 2261.27 -575.7C2256.44 -575.84 2249.73 -585.72 2243.9 -590.01C2211.87 -613.56 2182.27 -636.21 2149.62 -661.09C2127.46 -677.97 2110.72 -690.27 2089.51 -708.2C2108.35 -709.28 2124.9 -708.35 2140.8 -708.65C2145.51 -708.74 2147.03 -708.28 2153.85 -707.95C2157.41 -707.78 2164.15 -701.35 2167.13 -699.3C2174.97 -693.89 2177.27 -692.51 2184.22 -687.14C2192.54 -680.71 2199.95 -674.76 2208.62 -668.78Z" />
		</g>
	</g>
	<g id="_x23_5">
		<g id="Layer_11">
			<path id="Layer" class="shp5" d="M2776.37 -850.84C2769.61 -836.76 2762.85 -822.67 2756.09 -808.59C2754 -804.24 2751.9 -799.84 2750.76 -795.15C2747.5 -781.73 2753.24 -766.58 2764.56 -758.68C2775.89 -750.78 2792.08 -750.62 2803.56 -758.31C2813.54 -764.99 2819.29 -776.26 2824.59 -787.04C2835.73 -809.7 2846.77 -832.41 2857.8 -855.12C2861.72 -863.19 2865.64 -871.26 2869.56 -879.32C2875.82 -892.21 2882.25 -906.25 2879.56 -920.32C2875 -944.12 2846.65 -954.87 2826.59 -942.93C2808.88 -932.39 2804.42 -914.02 2796.5 -895.05C2790.18 -879.92 2783.46 -865.61 2776.37 -850.84Z" />
			<path id="Layer" class="shp5" d="M2826.42 -721.32C2822.11 -712.77 2817.75 -704.07 2816.02 -694.66C2814.29 -685.25 2815.52 -674.84 2821.48 -667.35C2828.29 -658.81 2839.74 -655.62 2850.54 -653.97C2853.51 -653.52 2856.55 -653.14 2859.5 -653.72C2863.67 -654.53 2867.71 -656.72 2870.42 -660C2886.18 -679.08 2895.62 -702.02 2907.06 -724.05C2917.09 -743.36 2925.84 -762.29 2935.23 -783.05C2940.88 -795.55 2949.05 -808.58 2945.43 -821.81C2941.54 -836.05 2926.07 -844.28 2911.39 -845.77C2904.89 -846.43 2898.12 -846.06 2892.18 -843.34C2882.81 -839.06 2881.12 -830.5 2877.18 -822.03C2871.94 -810.78 2865.98 -799.81 2860.4 -788.72C2849.07 -766.26 2837.74 -743.79 2826.42 -721.32Z" />
			<path id="Layer" class="shp6" d="M2937.16 -697C2936.42 -692.34 2935.9 -687.6 2936.45 -682.92C2937.93 -670.24 2947.65 -659.14 2959.77 -655.11C2971.89 -651.08 2985.82 -653.86 2996.07 -661.47C2998.43 -663.22 3000.63 -665.23 3002.4 -667.58C3005.09 -671.17 3006.7 -675.46 3007.75 -679.82C3010.86 -692.73 3006.61 -706.06 2998.19 -716.33C2990.55 -725.66 2968.22 -727.76 2956.13 -724.4C2944.31 -721.11 2938.93 -708.1 2937.16 -697Z" />
			<path id="Layer" class="shp5" d="M2705.97 -717.29C2699.03 -712.93 2695.62 -703.84 2693.94 -695.82C2692.43 -688.64 2693.55 -678.93 2696.54 -672.23C2698.2 -668.49 2702.61 -664.5 2705.51 -661.61C2713.84 -653.3 2725.93 -651.67 2737.6 -653.1C2749.87 -654.6 2760.66 -663.79 2764.9 -675.4C2769.14 -687.01 2767.02 -700.55 2760.15 -710.82C2758.17 -713.78 2755.79 -716.53 2752.81 -718.47C2747.87 -721.7 2742.28 -724.62 2736.42 -725.3C2729.27 -726.13 2721.41 -724.79 2714.45 -722.94C2707.5 -721.09 2700.93 -715.93 2699.61 -708.86" />
			<g id="Layer">
				<g id="Layer">
					<path id="Layer" class="shp0" d="M2714.42 -594.96C2715.05 -591.68 2717.35 -590.3 2720.91 -590.3C2724.25 -590.3 2725.79 -591.47 2725.79 -593.66C2725.79 -596.14 2724.12 -597.07 2718.17 -598.49C2707.06 -601.18 2704.84 -605.24 2704.84 -610.31C2704.84 -616.63 2709.48 -621.92 2719.97 -621.92C2730.87 -621.92 2735.32 -616.39 2735.85 -610.45L2725.19 -610.45C2724.9 -612.47 2723.86 -614.53 2719.95 -614.53C2717.42 -614.53 2715.87 -613.58 2715.87 -611.54C2715.87 -609.5 2717.25 -608.71 2723.06 -607.28C2734.67 -604.38 2736.97 -600.2 2736.97 -594.85C2736.97 -587.78 2731.51 -582.86 2720.46 -582.86C2710.04 -582.86 2704.53 -587.72 2703.69 -594.97L2714.42 -594.97L2714.42 -594.96Z" />
					<path id="Layer" class="shp0" d="M2750.2 -613.04L2739.43 -613.04L2739.43 -621.22L2771.92 -621.22L2771.92 -613.04L2761.25 -613.04L2761.25 -583.56L2750.2 -583.56L2750.2 -613.04L2750.2 -613.04Z" />
					<path id="Layer" fill-rule="evenodd" class="shp0" d="M2785.72 -590.88L2783.54 -583.55L2772.79 -583.55L2784.69 -621.21L2798.98 -621.21L2811.35 -583.55L2799.83 -583.55L2797.54 -590.88L2785.72 -590.88ZM2795.61 -599.06C2793.84 -604.98 2792.39 -610.24 2791.54 -613.91L2791.39 -613.91C2790.52 -609.85 2789.08 -604.48 2787.55 -599.06L2795.61 -599.06Z" />
					<path id="Layer" fill-rule="evenodd" class="shp0" d="M2826.24 -583.56L2815.53 -583.56L2815.53 -621.22L2834.19 -621.22C2843.06 -621.22 2847.35 -616.47 2847.35 -610.79C2847.35 -605.59 2844.31 -602.93 2841.7 -601.86C2844.07 -601.03 2846.61 -598.52 2846.61 -592.14L2846.61 -590.57C2846.61 -588.23 2846.68 -585.19 2847.1 -583.56L2836.58 -583.56C2835.94 -585.18 2835.78 -587.91 2835.78 -591.78L2835.78 -592.75C2835.78 -596 2835 -597.78 2830.13 -597.78L2826.24 -597.78L2826.24 -583.56ZM2831.35 -605.48C2835.03 -605.48 2836.36 -607.01 2836.36 -609.54C2836.36 -612.06 2834.77 -613.53 2831.4 -613.53L2826.24 -613.53L2826.24 -605.48L2831.35 -605.48Z" />
					<path id="Layer" class="shp0" d="M2860.83 -613.04L2850.06 -613.04L2850.06 -621.22L2882.55 -621.22L2882.55 -613.04L2871.88 -613.04L2871.88 -583.56L2860.83 -583.56L2860.83 -613.04L2860.83 -613.04Z" />
					<path id="Layer" fill-rule="evenodd" class="shp0" d="M2908.49 -590.88L2906.31 -583.55L2895.56 -583.55L2907.46 -621.21L2921.75 -621.21L2934.12 -583.55L2922.6 -583.55L2920.31 -590.88L2908.49 -590.88ZM2918.38 -599.06C2916.61 -604.98 2915.16 -610.24 2914.31 -613.91L2914.16 -613.91C2913.29 -609.85 2911.85 -604.48 2910.32 -599.06L2918.38 -599.06Z" />
					<path id="Layer" fill-rule="evenodd" class="shp0" d="M2955.75 -621.22C2964.24 -621.22 2969.96 -616.49 2969.96 -609.14C2969.96 -600.68 2963.47 -596.79 2955.49 -596.79L2949.19 -596.79L2949.19 -583.56L2938.29 -583.56L2938.29 -621.22L2955.75 -621.22ZM2949.19 -604.55L2953.69 -604.55C2956.81 -604.55 2959.03 -605.85 2959.03 -608.99C2959.03 -612.21 2956.8 -613.47 2953.72 -613.47L2949.19 -613.47L2949.19 -604.55Z" />
					<path id="Layer" fill-rule="evenodd" class="shp0" d="M2993.21 -621.22C3001.7 -621.22 3007.42 -616.49 3007.42 -609.14C3007.42 -600.68 3000.93 -596.79 2992.95 -596.79L2986.65 -596.79L2986.65 -583.56L2975.75 -583.56L2975.75 -621.22L2993.21 -621.22ZM2986.65 -604.55L2991.15 -604.55C2994.27 -604.55 2996.49 -605.85 2996.49 -608.99C2996.49 -612.21 2994.26 -613.47 2991.18 -613.47L2986.65 -613.47L2986.65 -604.55Z" />
				</g>
			</g>
		</g>
	</g>
	<g id="_x23_6">
		<g id="Layer_15">
			<path id="Layer" class="shp7" d="M115.71 24.12C106.08 24.17 96.37 24.58 86.89 26.24C57.86 31.32 35.82 54.14 21.57 79.93C16.96 88.27 11.92 92.65 11.92 103.78C11.92 127.62 11.92 156.65 11.92 182.1C25.05 146.59 60.93 119.92 98.59 116.03C106.69 115.19 114.86 115.33 123.01 115.47C131.64 115.62 140.26 115.76 148.89 115.91C165.55 116.19 182.21 116.48 198.87 116.15C219.1 115.75 240.51 114.04 257 102.32C264.92 96.69 271.19 89.07 277.2 81.42C283.75 73.08 290.16 64.49 294.5 54.81C297.75 47.57 305.59 24.12 295.95 24.12C290.08 24.12 280.34 24.2 273.78 24.12C266.49 24.03 259.16 24.08 251.88 24.12C223.01 24.27 194.16 24.07 165.29 24.22C148.75 24.3 132.24 24.04 115.71 24.12Z" />
			<path id="Layer" class="shp7" d="M11.92 215.1C11.31 226.38 13.79 260.28 20.57 269.48C39.57 295.25 49.49 295.07 59.73 299.4C76.8 306.61 87.64 306.84 105.91 309.19C121.11 311.14 135.98 303.71 150.4 298.54C130.52 286.14 115.35 266.2 112.8 242.9C111.23 228.62 111.7 214.85 111.88 201.02C112.21 175.78 112.2 149.25 111.88 124.01C111.82 119.45 70.04 134.15 67.24 135.82C57.92 141.37 47.94 148.92 40.62 156.9C24.01 175.02 13.22 190.94 11.92 215.1Z" />
			<path id="Layer" class="shp7" d="M204.24 211.17C204.17 220.16 204.24 228.67 204.46 237.71C205.27 271.51 171.47 297.43 140.76 311.58C166.03 310.16 191.29 308.74 216.56 307.33C227.26 306.73 238.27 306.05 247.96 301.47C252.7 299.23 256.98 296.12 261.04 292.8C280.42 276.97 295.89 255.04 299.26 230.25C300.28 222.73 300.07 215.1 300.08 207.51C300.14 158.53 300.14 116.43 300.14 60.49C300.55 67.53 294.57 74.66 290.28 80.26C277.18 97.31 259.26 110.51 239.28 118.38C234.18 120.39 228.95 122.05 223.62 123.34C220.22 124.16 204.25 127.39 204.25 130.78C204.25 141.92 204.31 156.73 204.25 164.16C204.12 180.18 204.37 195.13 204.24 211.17Z" />
			<g id="Layer">
				<g id="Layer">
					<path id="Layer" class="shp0" d="M34.62 366.54C35.37 368.79 37.4 370.2 41.29 370.2C45.29 370.2 46.51 368.9 46.51 367.32C46.51 365.63 45.32 364.68 39.65 363.94C29.95 362.62 28.46 359.09 28.46 355.89C28.46 352.12 31.36 347.72 40.19 347.72C49.34 347.72 52.36 352.16 52.7 355.71L45.6 355.71C45.23 354.37 44.25 352.61 39.92 352.61C36.26 352.61 35.56 354.08 35.56 355.18C35.56 356.54 36.52 357.35 41.73 358.1C52.08 359.61 53.61 363 53.61 366.7C53.61 371.44 50.01 375.23 40.83 375.23C33.55 375.23 28.32 372.15 27.48 366.54L34.62 366.54Z" />
					<path id="Layer" class="shp0" d="M56.28 348.43L61.12 348.43L61.12 340.52L68.35 340.52L68.35 348.43L74.63 348.43L74.63 353.75L68.35 353.75L68.35 365.78C68.35 368.24 68.91 369.36 71.54 369.36C72.27 369.36 73.15 369.34 73.88 369.18L73.88 374.19C72.54 374.6 70.81 374.74 69.02 374.74C62.92 374.74 61.12 372.07 61.12 366.97L61.12 353.75L56.28 353.75L56.28 348.43Z" />
					<path id="Layer" fill-rule="evenodd" class="shp0" d="M104.62 367.48C104.62 370.6 104.77 373.95 104.84 374.52L98.03 374.52C97.83 373.79 97.76 372.07 97.73 371.3C96.34 373.7 93.35 375.23 88.25 375.23C81.04 375.23 78.21 370.84 78.21 366.76C78.21 359.96 84.23 358.08 91.84 358.08C94.23 358.08 96.69 358.08 97.59 358.08L97.59 357.08C97.59 354.73 96.57 352.72 92.2 352.72C88.18 352.72 87.27 354.33 86.88 356.11L79.69 356.11C79.94 352.82 82.23 347.72 92.11 347.72C102.86 347.72 104.63 352.83 104.63 357.18L104.63 367.48L104.62 367.48ZM97.58 362.74C96.91 362.7 95.13 362.7 91.97 362.7C87.21 362.7 85.19 363.87 85.19 366.38C85.19 368.36 86.73 369.99 90.15 369.99C95.43 369.99 97.58 367.29 97.58 363.37L97.58 362.74Z" />
					<path id="Layer" class="shp0" d="M112.04 355.52C112.04 353.16 112.04 350.79 111.99 348.43L119.01 348.43C119.13 349.31 119.23 352.15 119.23 353.85C120.76 350.24 124.13 347.64 129.45 347.75L129.45 354.37C123.52 354.28 119.23 357.04 119.23 364.56L119.23 374.52L112.04 374.52L112.04 355.52Z" />
					<path id="Layer" class="shp0" d="M131.24 348.43L136.08 348.43L136.08 340.52L143.31 340.52L143.31 348.43L149.59 348.43L149.59 353.75L143.31 353.75L143.31 365.78C143.31 368.24 143.87 369.36 146.5 369.36C147.23 369.36 148.11 369.34 148.84 369.18L148.84 374.19C147.5 374.6 145.77 374.74 143.98 374.74C137.88 374.74 136.08 372.07 136.08 366.97L136.08 353.75L131.24 353.75L131.24 348.43L131.24 348.43Z" />
					<path id="Layer" fill-rule="evenodd" class="shp0" d="M194.06 367.48C194.06 370.6 194.21 373.95 194.28 374.52L187.47 374.52C187.27 373.79 187.2 372.07 187.17 371.3C185.78 373.7 182.79 375.23 177.69 375.23C170.48 375.23 167.65 370.84 167.65 366.76C167.65 359.96 173.67 358.08 181.28 358.08C183.67 358.08 186.13 358.08 187.03 358.08L187.03 357.08C187.03 354.73 186.01 352.72 181.64 352.72C177.62 352.72 176.71 354.33 176.32 356.11L169.13 356.11C169.38 352.82 171.67 347.72 181.55 347.72C192.3 347.72 194.07 352.83 194.07 357.18L194.07 367.48L194.06 367.48ZM187.03 362.74C186.36 362.7 184.58 362.7 181.42 362.7C176.66 362.7 174.64 363.87 174.64 366.38C174.64 368.36 176.18 369.99 179.6 369.99C184.88 369.99 187.03 367.29 187.03 363.37L187.03 362.74Z" />
					<path id="Layer" fill-rule="evenodd" class="shp0" d="M208.68 371.56L208.68 385.65L201.49 385.65L201.49 354.86C201.49 352.73 201.49 350.55 201.44 348.42L208.5 348.42C208.6 349 208.69 350.76 208.69 352.13C210.18 349.81 212.95 347.71 218.08 347.71C224.92 347.71 230.3 353.37 230.3 360.97C230.3 369.88 223.99 375.22 217.1 375.22C212.44 375.23 209.98 373.36 208.68 371.56ZM222.89 361.35C222.89 357.26 220.56 353.4 215.79 353.4C210.59 353.4 208.5 356.85 208.5 361.53C208.5 366.32 210.94 369.46 215.68 369.46C220.42 369.47 222.89 365.98 222.89 361.35Z" />
					<path id="Layer" fill-rule="evenodd" class="shp0" d="M243.24 371.56L243.24 385.65L236.05 385.65L236.05 354.86C236.05 352.73 236.05 350.55 236 348.42L243.06 348.42C243.16 349 243.25 350.76 243.25 352.13C244.74 349.81 247.51 347.71 252.64 347.71C259.48 347.71 264.86 353.37 264.86 360.97C264.86 369.88 258.55 375.22 251.66 375.22C247 375.23 244.54 373.36 243.24 371.56ZM257.45 361.35C257.45 357.26 255.12 353.4 250.35 353.4C245.15 353.4 243.06 356.85 243.06 361.53C243.06 366.32 245.5 369.46 250.24 369.46C254.97 369.47 257.45 365.98 257.45 361.35Z" />
				</g>
			</g>
		</g>
	</g>
	<g id="_x23_7">
		<g id="Layer_16">
			<path id="Layer" class="shp0" d="M654.7 215.83C657.53 215.13 661.13 217.63 660.24 220.4C659.97 221.24 659.36 221.93 658.75 222.57C655.48 226.01 652.19 229.14 648.27 231.81C647.8 232.13 646.96 232.78 646.39 232.74C645.75 232.7 645.05 231.93 644.6 231.47C632.47 219.1 620.5 206.66 608.37 194.29C605.85 191.72 604.73 189.05 602.73 186.05C596.74 177.03 594.92 165.47 596.46 154.75C596.94 151.38 597.61 148 599.03 144.91C600.45 141.84 602.58 139.14 604.93 136.7C611.31 130.06 619.42 125.11 628.23 122.47C632.9 121.07 637.81 120.31 642.65 120.83C654.16 122.06 663.6 130.15 672.24 137.86C675.87 141.11 679.51 144.35 683.14 147.6C688.13 152.06 693.39 156.95 694.85 163.48C695.9 168.16 694.72 173.29 691.74 177.05C688.76 180.81 684.03 183.12 679.23 183.16C670.31 183.24 663.12 176.22 657.03 169.69C655.17 167.69 653.3 165.7 651.44 163.7C648.55 160.61 645.5 157.4 641.5 156.03C637.5 154.66 632.29 155.79 630.49 159.62C629.03 162.72 630.22 166.42 631.85 169.43C636.76 178.5 645.26 184.95 653.11 191.63C663.89 200.81 674.11 210.98 684.05 221.08C688.99 214.98 695.62 210.1 701.4 204.79C707.66 199.04 712.88 192.81 718.24 186.22C723.6 179.62 728.74 171.79 728.14 163.31C727.88 159.66 727.23 155.32 726.15 151.83C724.73 147.21 723.08 143.84 719.81 139.67C719.17 138.86 716.41 136.09 715.55 135.51C714.33 134.69 709.84 132.2 708.59 131.42C703.91 128.49 702.09 129.32 696.58 129.01C691.06 128.71 685.58 130.14 680.45 132.19C679.06 132.74 677.6 133.35 676.13 133.1C673.68 132.69 672.18 129.82 672.69 127.38C673.2 124.94 675.26 123.07 677.55 122.11C679.84 121.15 682.37 120.96 684.85 120.8C689.28 120.5 693.73 120.22 698.16 120.64C711.55 121.91 724.13 129.94 730.9 141.56C737.67 153.18 738.43 168.11 732.85 180.34C728.35 190.22 722.34 197.83 714.45 205.29C705.75 213.5 702.97 216.24 694.27 224.45C693.35 225.32 686.28 232.31 685.05 232.6C682.18 233.27 679.56 230.85 677.82 228.46C664.87 210.71 643.74 197.94 629.53 181.17C626.09 177.12 622.92 172.66 621.51 167.54C620.1 162.42 620.73 156.48 624.24 152.49C626.22 150.24 628.94 148.76 631.76 147.74C634.19 146.86 636.78 146.29 639.36 146.53C641.93 146.77 644.38 147.81 646.61 149.12C656.95 155.19 663.02 166.71 672.94 173.44C674.18 174.28 675.52 175.06 677 175.31C680.5 175.9 683.99 173.2 685.06 169.82C686.13 166.44 685.15 162.68 683.29 159.66C681.43 156.64 678.74 154.24 676.1 151.87C672.63 148.77 669.16 145.66 665.69 142.56C661.42 138.74 657.1 134.88 652.11 132.06C647.12 129.24 641.33 127.49 635.65 128.24C632.83 128.61 630.13 129.57 627.52 130.68C619.84 133.93 612.41 138.77 608.4 146.09C605.08 152.14 604.42 159.31 604.66 166.21C604.79 169.93 604.99 170.73 606.33 174.21C607.73 177.84 611.05 183.35 613.59 186.3C618.31 191.81 623.23 197.05 628.18 202.35C632.63 207.11 635.36 210.59 639.95 215.34C641.38 216.82 645.43 221.41 647.71 221.06C649.65 220.79 652.29 216.43 654.7 215.83Z" />
			<g id="Layer">
				<g id="Layer">
					<path id="Layer" class="shp0" d="M758.57 177.05C759.32 179.3 761.35 180.71 765.24 180.71C769.24 180.71 770.46 179.41 770.46 177.83C770.46 176.14 769.27 175.19 763.6 174.45C753.9 173.13 752.41 169.6 752.41 166.4C752.41 162.63 755.31 158.23 764.14 158.23C773.29 158.23 776.31 162.67 776.65 166.22L769.53 166.22C769.16 164.88 768.18 163.12 763.85 163.12C760.19 163.12 759.49 164.59 759.49 165.69C759.49 167.05 760.45 167.86 765.66 168.61C776.01 170.12 777.54 173.51 777.54 177.21C777.54 181.95 773.94 185.74 764.76 185.74C757.48 185.74 752.25 182.66 751.41 177.05L758.57 177.05Z" />
					<path id="Layer" class="shp0" d="M780.23 158.94L785.07 158.94L785.07 151.03L792.3 151.03L792.3 158.94L798.58 158.94L798.58 164.26L792.3 164.26L792.3 176.29C792.3 178.75 792.86 179.87 795.49 179.87C796.22 179.87 797.1 179.85 797.83 179.69L797.83 184.7C796.49 185.11 794.76 185.25 792.97 185.25C786.87 185.25 785.07 182.58 785.07 177.48L785.07 164.26L780.23 164.26L780.23 158.94L780.23 158.94Z" />
					<path id="Layer" fill-rule="evenodd" class="shp0" d="M828.57 177.99C828.57 181.11 828.72 184.46 828.79 185.03L821.98 185.03C821.78 184.3 821.71 182.58 821.68 181.81C820.29 184.21 817.3 185.74 812.2 185.74C804.99 185.74 802.16 181.35 802.16 177.27C802.16 170.47 808.18 168.59 815.79 168.59C818.18 168.59 820.64 168.59 821.54 168.59L821.54 167.59C821.54 165.24 820.52 163.23 816.15 163.23C812.13 163.23 811.22 164.84 810.83 166.62L803.64 166.62C803.89 163.33 806.18 158.23 816.06 158.23C826.81 158.23 828.58 163.34 828.58 167.69L828.58 177.99L828.57 177.99ZM821.53 173.26C820.86 173.22 819.08 173.22 815.92 173.22C811.16 173.22 809.14 174.39 809.14 176.9C809.14 178.88 810.68 180.51 814.1 180.51C819.38 180.51 821.53 177.81 821.53 173.89L821.53 173.26Z" />
					<path id="Layer" class="shp0" d="M835.99 166.03C835.99 163.67 835.99 161.3 835.94 158.94L842.96 158.94C843.08 159.82 843.18 162.66 843.18 164.36C844.71 160.75 848.08 158.15 853.4 158.26L853.4 164.88C847.47 164.79 843.18 167.55 843.18 175.07L843.18 185.03L835.99 185.03L835.99 166.03Z" />
					<path id="Layer" class="shp0" d="M855.19 158.94L860.03 158.94L860.03 151.03L867.26 151.03L867.26 158.94L873.54 158.94L873.54 164.26L867.26 164.26L867.26 176.29C867.26 178.75 867.82 179.87 870.45 179.87C871.18 179.87 872.06 179.85 872.79 179.69L872.79 184.7C871.45 185.11 869.72 185.25 867.93 185.25C861.83 185.25 860.03 182.58 860.03 177.48L860.03 164.26L855.19 164.26L855.19 158.94L855.19 158.94Z" />
					<path id="Layer" fill-rule="evenodd" class="shp0" d="M918.01 177.99C918.01 181.11 918.16 184.46 918.23 185.03L911.42 185.03C911.22 184.3 911.15 182.58 911.12 181.81C909.73 184.21 906.74 185.74 901.64 185.74C894.43 185.74 891.6 181.35 891.6 177.27C891.6 170.47 897.62 168.59 905.23 168.59C907.62 168.59 910.08 168.59 910.98 168.59L910.98 167.59C910.98 165.24 909.96 163.23 905.59 163.23C901.57 163.23 900.66 164.84 900.27 166.62L893.08 166.62C893.33 163.33 895.62 158.23 905.5 158.23C916.25 158.23 918.02 163.34 918.02 167.69L918.02 177.99L918.01 177.99ZM910.98 173.26C910.31 173.22 908.53 173.22 905.37 173.22C900.61 173.22 898.59 174.39 898.59 176.9C898.59 178.88 900.13 180.51 903.55 180.51C908.83 180.51 910.98 177.81 910.98 173.89L910.98 173.26Z" />
					<path id="Layer" fill-rule="evenodd" class="shp0" d="M932.63 182.08L932.63 196.17L925.44 196.17L925.44 165.38C925.44 163.25 925.44 161.07 925.39 158.94L932.45 158.94C932.55 159.52 932.64 161.28 932.64 162.65C934.13 160.33 936.9 158.23 942.03 158.23C948.87 158.23 954.25 163.89 954.25 171.49C954.25 180.4 947.94 185.74 941.05 185.74C936.39 185.74 933.93 183.87 932.63 182.08ZM946.84 171.86C946.84 167.77 944.51 163.91 939.74 163.91C934.54 163.91 932.45 167.36 932.45 172.04C932.45 176.83 934.89 179.97 939.63 179.97C944.37 179.99 946.84 176.49 946.84 171.86Z" />
					<path id="Layer" fill-rule="evenodd" class="shp0" d="M967.19 182.08L967.19 196.17L960 196.17L960 165.38C960 163.25 960 161.07 959.95 158.94L967.01 158.94C967.11 159.52 967.2 161.28 967.2 162.65C968.69 160.33 971.46 158.23 976.59 158.23C983.43 158.23 988.81 163.89 988.81 171.49C988.81 180.4 982.5 185.74 975.61 185.74C970.95 185.74 968.49 183.87 967.19 182.08ZM981.4 171.86C981.4 167.77 979.07 163.91 974.3 163.91C969.1 163.91 967.01 167.36 967.01 172.04C967.01 176.83 969.45 179.97 974.19 179.97C978.92 179.99 981.4 176.49 981.4 171.86Z" />
				</g>
			</g>
		</g>
	</g>
	<g id="_x23_8">
		<g id="Layer_17">
		</g>
	</g>
</svg>